# Blender v2.93.0 OBJ File: ''
# www.blender.org
mtllib abouy1.mtl
o 원뿔_원뿔.002
v 5.523932 -1.274219 -2.976772
v 4.903560 -1.274219 1.000000
v 5.523932 -1.274219 0.980785
v 5.711524 -1.274219 0.923880
v 5.884411 -1.274219 0.831470
v 6.035948 -1.274219 0.707107
v 6.160311 -1.274219 0.555570
v 6.252721 -1.274219 0.382683
v 6.309627 -1.274219 0.195090
v 6.328841 -1.274219 0.000000
v -0.195090 -1.274219 -2.976772
v -0.382683 -1.274219 -2.919867
v -0.555570 -1.274219 -2.827456
v -0.707107 -1.274219 -2.703094
v -0.831470 -1.274219 -2.551557
v -0.923879 -1.274219 -2.378670
v 0.396929 -1.000000 1.000000
v -0.195090 -1.000000 0.980785
v -0.382683 -1.000000 0.923880
v -0.555570 -1.000000 0.831470
v -0.707107 -1.000000 0.707107
v -0.831469 -1.000000 0.555570
v -0.923880 -1.000000 0.382684
v -0.980785 -1.000000 0.195090
v -1.000000 -1.000000 -0.300803
v -0.980785 -1.274219 -2.191077
v 4.903560 -1.274219 -2.995987
v 0.396929 -1.274219 -2.995987
v -1.000000 -1.274219 -1.995987
v -1.000000 -1.274219 -0.000000
v 5.884411 -1.274219 -2.827456
v 5.711524 -1.274219 -2.919867
v 0.396929 0.394882 -0.300803
v 0.396929 -1.000000 -2.995987
v -0.980785 -1.274219 0.195090
v 0.396929 0.394882 -1.656899
v -0.923880 -1.274219 0.382684
v -0.831469 -1.274219 0.555570
v -0.707107 -1.274219 0.707107
v -0.555570 -1.274219 0.831470
v -0.382683 -1.274219 0.923880
v -0.195090 -1.274219 0.980785
v 0.396929 -1.274219 1.000000
v -1.000000 -1.000000 -1.700653
v -0.980785 -1.000000 -2.191077
v -0.923879 -1.000000 -2.378670
v -0.831470 -1.000000 -2.551557
v -0.707107 -1.000000 -2.703094
v -0.555570 -1.000000 -2.827456
v -0.382683 -1.000000 -2.919867
v -0.195090 -1.000000 -2.976772
v 4.903560 0.394882 -0.300803
v 6.328841 -1.000000 -0.300803
v 6.309627 -1.000000 0.195090
v 6.252721 -1.000000 0.382683
v 6.160311 -1.000000 0.555570
v 6.035948 -1.000000 0.707107
v 5.884411 -1.000000 0.831470
v 5.711524 -1.000000 0.923880
v 5.523932 -1.000000 0.980785
v 4.903560 -1.000000 1.000000
v 4.903560 0.394882 -1.656899
v 4.903560 -1.000000 -2.995987
v 5.523932 -1.000000 -2.976772
v 5.711524 -1.000000 -2.919867
v 5.884411 -1.000000 -2.827456
v 6.035948 -1.000000 -2.703094
v 6.160311 -1.000000 -2.551557
v 6.252721 -1.000000 -2.378670
v 6.309627 -1.000000 -2.191077
v 6.328841 -1.000000 -1.700653
v 6.035948 -1.274219 -2.703094
v 6.160311 -1.274219 -2.551557
v 6.252721 -1.274219 -2.378670
v 6.309627 -1.274219 -2.191077
v 6.328841 -1.274219 -1.995987
vt 0.158156 0.028269
vt 0.116663 0.050447
vt 0.116663 0.050447
vt 0.158156 0.028269
vt 0.490000 0.250000
vt 0.485388 0.203178
vt 0.485388 0.203178
vt 0.490000 0.250000
vt 0.419706 0.080294
vt 0.383337 0.050447
vt 0.383337 0.050447
vt 0.419706 0.080294
vt 0.296822 0.485388
vt 0.341844 0.471731
vt 0.341844 0.471731
vt 0.296822 0.485388
vt 0.250000 0.010000
vt 0.203178 0.014612
vt 0.203178 0.014612
vt 0.250000 0.010000
vt 0.449553 0.383337
vt 0.471731 0.341844
vt 0.471731 0.341844
vt 0.449553 0.383337
vt 0.485388 0.296822
vt 0.485388 0.296822
vt 0.050447 0.383337
vt 0.080294 0.419706
vt 0.080294 0.419706
vt 0.050447 0.383337
vt 0.341844 0.028269
vt 0.296822 0.014612
vt 0.296822 0.014612
vt 0.341844 0.028269
vt 0.028269 0.341844
vt 0.028269 0.341844
vt 0.010000 0.250000
vt 0.010000 0.250000
vt 0.010000 0.250000
vt 0.010000 0.250000
vt 0.490000 0.250000
vt 0.490000 0.250000
vt 0.250000 0.010000
vt 0.250000 0.010000
vt 0.080294 0.080294
vt 0.050447 0.116663
vt 0.050447 0.116663
vt 0.080294 0.080294
vt 0.028269 0.158156
vt 0.028269 0.158156
vt 0.449553 0.116663
vt 0.449553 0.116663
vt 0.250000 0.250000
vt 0.014612 0.203178
vt 0.203178 0.485388
vt 0.250000 0.490000
vt 0.250000 0.490000
vt 0.203178 0.485388
vt 0.419706 0.419706
vt 0.419706 0.419706
vt 0.250000 0.490000
vt 0.250000 0.490000
vt 0.383337 0.449553
vt 0.383337 0.449553
vt 0.471731 0.158156
vt 0.471731 0.158156
vt 0.116663 0.449553
vt 0.116663 0.449553
vt 0.250000 0.250000
vt 0.014612 0.203178
vt 0.250000 0.250000
vt 0.250000 0.250000
vt 0.658156 0.471731
vt 0.703178 0.485388
vt 0.750000 0.490000
vt 0.750000 0.490000
vt 0.796822 0.485388
vt 0.841844 0.471731
vt 0.883337 0.449553
vt 0.919706 0.419706
vt 0.949553 0.383337
vt 0.971731 0.341844
vt 0.985388 0.296822
vt 0.990000 0.250000
vt 0.990000 0.250000
vt 0.985388 0.203178
vt 0.971731 0.158156
vt 0.949553 0.116663
vt 0.919706 0.080294
vt 0.883337 0.050447
vt 0.841844 0.028269
vt 0.796822 0.014612
vt 0.750000 0.010000
vt 0.750000 0.010000
vt 0.703178 0.014612
vt 0.658156 0.028269
vt 0.616663 0.050447
vt 0.580294 0.080294
vt 0.550447 0.116663
vt 0.528269 0.158156
vt 0.514612 0.203178
vt 0.510000 0.250000
vt 0.510000 0.250000
vt 0.514612 0.296822
vt 0.528269 0.341844
vt 0.550447 0.383337
vt 0.580294 0.419706
vt 0.616663 0.449553
vt 0.014612 0.296822
vt 0.014612 0.296822
vt 0.158156 0.471731
vt 0.158156 0.471731
vn -0.4714 0.0000 0.8819
vn 0.9980 0.0304 0.0555
vn 0.6344 0.0000 0.7730
vn 0.2903 0.0000 -0.9569
vn -0.0324 0.0000 0.9995
vn 0.8819 0.0000 -0.4714
vn 0.9569 0.0000 -0.2903
vn -0.7730 0.0000 -0.6344
vn 0.2903 0.0000 0.9569
vn -0.8819 0.0000 -0.4714
vn -1.0000 0.0000 0.0000
vn 0.9980 0.0301 -0.0559
vn 0.0000 0.0000 1.0000
vn -0.7730 0.0000 0.6344
vn -0.8819 0.0000 0.4714
vn 0.7730 0.0000 0.6344
vn -0.0237 0.6818 0.7311
vn -0.2050 0.7080 0.6758
vn -0.3271 0.7201 0.6119
vn -0.4352 0.7276 0.5303
vn -0.5278 0.7307 0.4331
vn -0.6034 0.7293 0.3225
vn -0.6605 0.7236 0.2004
vn -0.7063 0.7074 0.0274
vn -0.0324 0.0000 -0.9995
vn 0.7730 0.0000 -0.6344
vn 0.0000 0.0000 -1.0000
vn 0.0310 0.0000 0.9995
vn 0.4714 0.0000 -0.8819
vn 0.9569 0.0000 0.2903
vn -0.6344 0.0000 -0.7730
vn -0.7066 0.7076 0.0000
vn -0.9980 0.0304 0.0555
vn 0.0000 1.0000 0.0000
vn 0.6344 0.0000 -0.7730
vn 0.0000 0.6925 -0.7214
vn 0.0000 -1.0000 0.0000
vn 1.0000 0.0000 0.0000
vn -0.9569 0.0000 -0.2903
vn -0.2903 0.0000 -0.9569
vn -0.9569 0.0000 0.2903
vn -0.7059 0.7078 -0.0277
vn -0.6579 0.7262 -0.1996
vn -0.5995 0.7334 -0.3204
vn -0.5232 0.7361 -0.4294
vn -0.4306 0.7344 -0.5247
vn -0.3232 0.7280 -0.6046
vn -0.2023 0.7170 -0.6670
vn -0.0234 0.6923 -0.7212
vn -0.2903 0.0000 0.9569
vn -0.9980 0.0301 -0.0559
vn 0.6994 0.7147 0.0000
vn 0.6992 0.7144 0.0271
vn 0.6541 0.7299 0.1984
vn 0.5980 0.7350 0.3196
vn 0.5236 0.7356 0.4297
vn 0.4324 0.7317 0.5269
vn 0.3255 0.7233 0.6090
vn 0.2044 0.7100 0.6739
vn 0.0226 0.6818 0.7312
vn 0.0223 0.6924 -0.7212
vn 0.2017 0.7190 -0.6651
vn 0.3216 0.7311 -0.6017
vn 0.4278 0.7383 -0.5213
vn 0.5191 0.7410 -0.4260
vn 0.5941 0.7390 -0.3176
vn 0.6515 0.7324 -0.1976
vn 0.6988 0.7148 -0.0274
vn 0.0000 0.6820 0.7313
vn 0.4714 0.0000 0.8819
vn -0.6344 0.0000 0.7730
vn -0.4714 0.0000 -0.8819
vn 0.0310 0.0000 -0.9995
vn 0.8819 0.0000 0.4714
usemtl None
s off
f 19/1/1 20/2/1 40/3/1 41/4/1
f 53/5/2 54/6/2 9/7/2 10/8/2
f 57/9/3 58/10/3 5/11/3 6/12/3
f 64/13/4 65/14/4 32/15/4 1/16/4
f 17/17/5 18/18/5 42/19/5 43/20/5
f 68/21/6 69/22/6 74/23/6 73/24/6
f 69/22/7 70/25/7 75/26/7 74/23/7
f 47/27/8 48/28/8 14/29/8 15/30/8
f 59/31/9 60/32/9 3/33/9 4/34/9
f 46/35/10 47/27/10 15/30/10 16/36/10
f 25/37/11 44/38/11 29/39/11 30/40/11
f 70/25/12 71/41/12 76/42/12 75/26/12
f 61/43/13 17/17/13 43/20/13 2/44/13
f 21/45/14 22/46/14 38/47/14 39/48/14
f 22/46/15 23/49/15 37/50/15 38/47/15
f 56/51/16 57/9/16 6/12/16 7/52/16
f 17/17/17 33/53/17 18/18/17
f 18/18/18 33/53/18 19/1/18
f 19/1/19 33/53/19 20/2/19
f 20/2/20 33/53/20 21/45/20
f 21/45/21 33/53/21 22/46/21
f 22/46/22 33/53/22 23/49/22
f 23/49/23 33/53/23 24/54/23
f 24/54/24 33/53/24 25/37/24
f 51/55/25 34/56/25 28/57/25 11/58/25
f 67/59/26 68/21/26 73/24/26 72/60/26
f 34/56/27 63/61/27 27/62/27 28/57/27
f 60/32/28 61/43/28 2/44/28 3/33/28
f 65/14/29 66/63/29 31/64/29 32/15/29
f 54/6/30 55/65/30 8/66/30 9/7/30
f 48/28/31 49/67/31 13/68/31 14/29/31
f 25/37/32 33/53/32 36/69/32 44/38/32
f 24/54/33 25/37/33 30/40/33 35/70/33
f 36/69/34 33/53/34 52/71/34 62/72/34
f 66/63/35 67/59/35 72/60/35 31/64/35
f 34/56/36 36/69/36 62/72/36 63/61/36
f 12/73/37 11/74/37 28/75/37 27/76/37 1/77/37 32/78/37 31/79/37 72/80/37 73/81/37 74/82/37 75/83/37 76/84/37 10/85/37 9/86/37 8/87/37 7/88/37 6/89/37 5/90/37 4/91/37 3/92/37 2/93/37 43/94/37 42/95/37 41/96/37 40/97/37 39/98/37 38/99/37 37/100/37 35/101/37 30/102/37 29/103/37 26/104/37 16/105/37 15/106/37 14/107/37 13/108/37
f 71/41/38 53/5/38 10/8/38 76/42/38
f 45/109/39 46/35/39 16/36/39 26/110/39
f 50/111/40 51/55/40 11/58/40 12/112/40
f 23/49/41 24/54/41 35/70/41 37/50/41
f 44/38/42 36/69/42 45/109/42
f 45/109/43 36/69/43 46/35/43
f 46/35/44 36/69/44 47/27/44
f 47/27/45 36/69/45 48/28/45
f 48/28/46 36/69/46 49/67/46
f 49/67/47 36/69/47 50/111/47
f 50/111/48 36/69/48 51/55/48
f 51/55/49 36/69/49 34/56/49
f 18/18/50 19/1/50 41/4/50 42/19/50
f 44/38/51 45/109/51 26/110/51 29/39/51
f 52/71/52 53/5/52 71/41/52 62/72/52
f 53/5/53 52/71/53 54/6/53
f 54/6/54 52/71/54 55/65/54
f 55/65/55 52/71/55 56/51/55
f 56/51/56 52/71/56 57/9/56
f 57/9/57 52/71/57 58/10/57
f 58/10/58 52/71/58 59/31/58
f 59/31/59 52/71/59 60/32/59
f 60/32/60 52/71/60 61/43/60
f 63/61/61 62/72/61 64/13/61
f 64/13/62 62/72/62 65/14/62
f 65/14/63 62/72/63 66/63/63
f 66/63/64 62/72/64 67/59/64
f 67/59/65 62/72/65 68/21/65
f 68/21/66 62/72/66 69/22/66
f 69/22/67 62/72/67 70/25/67
f 70/25/68 62/72/68 71/41/68
f 33/53/69 17/17/69 61/43/69 52/71/69
f 58/10/70 59/31/70 4/34/70 5/11/70
f 20/2/71 21/45/71 39/48/71 40/3/71
f 49/67/72 50/111/72 12/112/72 13/68/72
f 63/61/73 64/13/73 1/16/73 27/62/73
f 55/65/74 56/51/74 7/52/74 8/66/74
